<?xml version="1.0" standalone="no"?>
<!DOCTYPE svg PUBLIC "-//W3C//DTD SVG 1.1//EN" "http://www.w3.org/Graphics/SVG/1.1/DTD/svg11.dtd" >
<svg xmlns="http://www.w3.org/2000/svg">
<metadata>Generated by IcoMoon</metadata>
<defs>
<font id="icomoon" horiz-adv-x="1024">
<font-face units-per-em="1024" ascent="960" descent="-64" />
<missing-glyph horiz-adv-x="1024" />
<glyph unicode="&#x20;" horiz-adv-x="512" d="" />
<glyph unicode="&#xe900;" glyph-name="blink-arrow-angle-right" d="M191.372 839.32l120.68 120.68 482.718-482.718-120.68-120.68-482.718 482.718zM674.090 597.961l120.68-120.68-482.718-482.718-120.68 120.68 482.718 482.718z" />
<glyph unicode="&#xe901;" glyph-name="blink-arrow-clear" d="M27.676 399.103c-36.901 21.731-36.901 76.064 0 97.795l608.865 358.589c36.9 21.733 83.027-5.433 83.027-48.898v-717.176c0-43.465-46.127-70.631-83.027-48.897l-608.865 358.588zM932.169 863.135v0c41.686 0 75.479-33.793 75.479-75.479v-679.312c0-41.686-33.793-75.479-75.479-75.479v0c-41.686 0-75.479 33.793-75.479 75.479v679.312c0 41.686 33.793 75.479 75.479 75.479z" />
<glyph unicode="&#xe902;" glyph-name="blink-arrow-right" d="M48.762 496.762c-26.93 0-48.762-21.832-48.762-48.762s21.831-48.762 48.762-48.762v97.524zM926.476 448l34.592-34.367 34.143 34.367-34.143 34.367-34.592-34.367zM573.508 872.463c-18.983 19.105-49.859 19.205-68.964 0.225-19.102-18.981-19.203-49.855-0.224-68.959l69.188 68.735zM504.32 92.272c-18.979-19.105-18.878-49.981 0.224-68.959 19.105-18.983 49.981-18.881 68.964 0.224l-69.188 68.735zM48.762 399.238h877.714v97.524h-877.714v-97.524zM961.068 482.367l-387.56 390.095-69.188-68.735 387.564-390.095 69.183 68.735zM891.884 482.367l-387.564-390.095 69.188-68.735 387.56 390.095-69.183 68.735z" />
<glyph unicode="&#xe903;" glyph-name="blink-bill" d="M118.148-46.804l51.961 47.916c32.691 30.345 83.119 30.75 116.295 0.944l65.799-58.709c10.976-9.827 27.607-9.792 38.529 0.102l64.838 58.497c32.908 29.817 83.054 29.817 115.959 0l64.842-58.497c10.919-9.883 27.549-9.929 38.525-0.102l65.801 58.721c33.174 29.806 83.615 29.389 116.292-0.956l51.962-47.916v1006.804h-790.804v-1006.804zM320.706 626.002h370.263c15.933 0 28.846-12.926 28.846-28.848 0-15.934-12.914-28.849-28.846-28.849h-370.263c-15.934 0-28.848 12.915-28.848 28.849 0 15.923 12.914 28.848 28.848 28.848zM320.706 425.438h370.263c15.933 0 28.846-12.914 28.846-28.846 0-15.936-12.914-28.85-28.846-28.85h-370.263c-15.934 0-28.848 12.914-28.848 28.85 0 15.933 12.914 28.846 28.848 28.846z" />
<glyph unicode="&#xe904;" glyph-name="blink-caret" d="M903.614 773.818h-783.228c-81.283 0-123.526-96.87-68.216-156.435l391.614-421.738c36.83-39.662 99.603-39.662 136.432 0l391.616 421.738c55.305 59.564 13.070 156.435-68.218 156.435z" />
<glyph unicode="&#xe905;" glyph-name="blink-cash" d="M525.714 928c-76.796 0-139.286-69.297-139.286-152s62.49-150 139.286-150c76.796 0 139.286 67.297 139.286 150s-62.49 152-139.286 152zM720.713 386c61.455 0 111.429 53.819 111.429 119.998s-49.975 120.001-111.429 120.001c-61.451 0-111.426-53.822-111.426-120.001s49.975-119.998 111.426-119.998zM78.143 25.999h27.857c30.773 0 55.714 26.869 55.714 59.999v360.002c0 33.141-24.941 59.999-55.714 59.999h-27.857c-15.387 0-27.857-13.429-27.857-30v-420.001c0-16.571 12.47-30 27.857-30zM217.426 446v-360.002c0-6.045-0.856-11.842-1.654-17.646l162.544-86.532c19.23-10.346 40.785-15.821 62.271-15.821 8.547 0 251.637 0 251.637 0 20.703 0 40.945 6.181 58.573 17.898l228.089 173.656c24.561 19.924 29.568 57.604 11.129 84.056-16.731 24.016-49.148 34.421-78 11.977l-171.469-104.155c-3.997-2.26-8.43-3.43-12.95-3.43-10.039 0-330.847 0-318.885 0-15.4 0-27.856 13.414-27.856 30 0 16.578 12.456 30 27.856 30h256.285c30.775 0 55.717 26.869 55.717 59.999 0 33.141-24.942 60.003-55.717 60.003h-130.856l-132.045 94.804c-22.931 16.49-49.649 25.194-77.259 25.194h-107.41z" />
<glyph unicode="&#xe906;" glyph-name="blink-check" d="M461.199 825.076l-25.962-37.712c-5.628-8.172-14.917-13.056-24.843-13.056-9.922 0-19.211 4.884-24.839 13.056l-25.961 37.712-25.966-37.712c-5.628-8.172-14.916-13.056-24.84-13.056s-19.212 4.884-24.84 13.056l-25.964 37.712-20.648-29.988v-205.6h244.509v205.598h0.004l-20.648 29.99zM0 259.507v-143.411c0-70.861 57.648-128.508 128.508-128.508h766.987c70.857 0 128.508 57.648 128.508 128.508v143.411h-1024.004zM586.299 123.546h-148.597c-16.651 0-30.157 13.502-30.157 30.16 0 16.651 13.502 30.153 30.157 30.153h148.597c16.655 0 30.157-13.502 30.157-30.153 0.004-16.655-13.502-30.16-30.157-30.16zM939.842 671.987c-3.065 13.8-15.305 23.62-29.444 23.62h-106.083v40.812h101.961c16.655 0 30.16 13.502 30.16 30.158v111.68c0 16.654-13.502 30.158-30.16 30.158h-264.24c-16.655 0-30.157-13.502-30.157-30.158v-111.682c0-16.654 13.502-30.158 30.157-30.158h101.965v-40.812h-201.841v-136.274c0-16.651-13.502-30.153-30.16-30.153h-304.819c-16.654 0-30.158 13.502-30.158 30.153v136.274h-63.42c-14.136 0-26.376-9.82-29.442-23.62l-78.196-352.167h1012.075l-78.197 352.17zM271.523 402.637h-29.794c-16.654 0-30.158 13.502-30.158 30.157s13.502 30.16 30.158 30.16h29.794c16.654 0 30.158-13.502 30.158-30.16 0-16.655-13.502-30.157-30.158-30.157zM422.707 402.637h-29.795c-16.655 0-30.158 13.502-30.158 30.157s13.499 30.16 30.158 30.16h29.795c16.655 0 30.157-13.502 30.157-30.16 0-16.655-13.502-30.157-30.157-30.157zM573.89 402.637h-29.791c-16.655 0-30.16 13.502-30.16 30.157s13.502 30.16 30.16 30.16h29.791c16.655 0 30.16-13.502 30.16-30.16-0.004-16.655-13.506-30.157-30.16-30.157zM804.315 432.794c0-16.655-13.502-30.157-30.157-30.157-16.658 0-30.157 13.502-30.157 30.157v105.677c0 16.655 13.502 30.157 30.157 30.157 16.658 0 30.16-13.502 30.16-30.157v-105.677h-0.004z" />
<glyph unicode="&#xe907;" glyph-name="blink-close" d="M935.741 926.868l77.58-77.58-905.097-905.097-77.58 77.58 905.097 905.097zM30.645 849.288l77.58 77.58 905.097-905.097-77.58-77.58-905.097 905.097z" />
<glyph unicode="&#xe908;" glyph-name="blink-credit-card" d="M106.037 666.98l807.686 207.562-6.766 31.586c-9.026 38.352-49.635 60.913-87.991 51.89l-667.807-171.464c-38.354-9.024-60.915-49.634-51.89-87.988l6.768-31.586zM965.621 389.475c38.352 9.026 60.913 49.635 51.888 87.991l-65.426 257.195-564.030-144.391h381.283c76.712 0 139.882-63.17 139.882-139.878v-76.712l56.404 15.795zM839.278 450.403c0 40.609-31.587 72.196-72.196 72.196h-690.373c-40.61 0-72.196-31.587-72.196-72.196v-442.196c0-40.613 31.586-72.196 72.196-72.196h690.373c40.609 0 72.196 31.583 72.196 72.196v442.196zM83.478 398.512c0 18.048 15.793 33.843 33.842 33.843h383.541c18.048 0 33.84-15.795 33.84-33.843s-15.792-33.84-33.84-33.84h-383.541c-18.049 0-33.842 15.788-33.842 33.84zM518.908 1.434c-63.17 0-115.061 51.891-115.061 115.065 0 63.17 51.891 112.805 115.061 112.805s115.061-51.891 115.061-115.061c0-63.17-51.891-112.808-115.061-112.808zM767.082 114.242c0-63.17-51.891-115.061-115.061-115.061-6.769 0-15.795 0-22.565 2.253 29.33 29.33 45.125 67.686 45.125 112.808s-18.052 83.478-45.125 112.805c6.769 2.256 13.539 2.256 22.565 2.256 65.426 0 115.061-51.891 115.061-115.061z" />
<glyph unicode="&#xe909;" glyph-name="blink-delete" d="M781.312 839.425h-118.621v88.846c0 17.883-12.516 31.729-28.030 31.729-1.508 0-2.509-0.579-3.002-1.157-0.503 0.578-1.503 1.157-2.006 1.157h-282.799c-15.515 0-27.527-13.846-27.527-31.729v-88.847h-119.124c-34.041 0-60.566-30.572-60.566-69.807v-114.225h52.557v-650.164c0-39.238 26.023-69.227 60.065-69.227h477.002c34.039 0 60.565 29.989 60.565 69.227v650.164h52.052v114.225c0 39.236-26.536 69.809-60.565 69.809zM374.383 896.543h232.751v-57.118h-232.751v57.118zM734.264 5.227c0-4.049-1.503-5.772-5.004-5.772h-477.002c-3.502 0-5.007 1.727-5.007 5.772v650.165h487.013v-650.165zM786.32 718.849h-591.126v50.769c0 4.037 1.505 6.351 5.007 6.351h581.111c3.505 0 5.008-2.313 5.008-6.351v-50.769zM647.173 714.239h-55.559v-524.971h55.559zM519.035 714.239h-55.558v-524.971h55.558zM390.899 714.239h-55.558v-524.971h55.558z" />
<glyph unicode="&#xe90a;" glyph-name="blink-done" d="M393.846 256l-71.972-63.526 68.272-77.35 72.238 73.658-68.538 67.219zM56.028 493.647l265.846-301.174 143.944 127.056-265.846 301.176-143.945-127.059zM462.384 188.781l502.154 511.999-137.075 134.44-502.154-512 137.076-134.439z" />
<glyph unicode="&#xe90b;" glyph-name="blink-item" d="M1024 193.59h-1024v-106.996h1024zM842.035 567.488c-72.469 71.214-164.563 116.102-264.294 129.843 6.5 11.003 10.24 23.765 10.24 37.376 0 41.191-34.1 74.705-76.016 74.705s-76.016-33.512-76.016-74.705c0-13.611 3.742-26.373 10.24-37.376-99.732-13.741-191.829-58.629-264.291-129.843-85.7-84.22-133.942-195.434-136.576-314.123h933.283c-2.632 118.691-50.875 229.903-136.571 314.123z" />
<glyph unicode="&#xe90c;" glyph-name="blink-label-tag" d="M981.923 929.333c-10.984 11.207-28.792 11.207-39.771 0l-81.911-83.581c-5.035 2.449-10.351 4.421-15.899 5.837l-254.544 64.169c-28.583 7.288-59.285-1.385-80.117-22.648l-454.749-463.262c-32.893-33.565-32.893-88.184 0-121.754l318.179-324.666c32.897-33.569 86.421-33.569 119.318 0l454.002 464.028c20.832 21.259 29.335 52.589 22.19 81.755l-62.887 259.735c-1.385 5.659-3.317 11.081-5.717 16.219l81.911 83.585c10.979 11.206 10.979 29.375-0.004 40.582zM914.049 515.29c2.382-9.724-0.454-20.164-7.395-27.252l-454.002-464.028c-10.966-11.188-28.81-11.188-39.776 0l-318.175 324.67c-10.966 11.193-10.966 29.398 0 40.586l454.749 463.262c5.316 5.427 12.564 8.392 19.95 8.392 2.257 0 4.528-0.276 6.754-0.846l239.095-60.225-67.726-69.111c-31.357 15.24-70.086 9.648-96.011-16.803-32.897-33.565-32.897-88.184 0-121.749 16.446-16.785 38.053-25.177 59.659-25.177s43.213 8.388 59.659 25.177c25.925 26.45 31.401 65.972 16.464 97.966l67.726 69.111 59.027-243.975zM731.060 632.77c-10.966-11.188-28.806-11.193-39.771 0-10.966 11.184-10.966 29.393 0 40.582 5.481 5.596 12.68 8.392 19.883 8.392 7.199 0 14.403-2.8 19.883-8.388l0.004-0.004c10.966-11.188 10.961-29.398 0-40.582zM492.001 595.46c-33.645 34.326-88.385 34.326-122.030 0-33.641-34.331-33.641-90.188 0-124.518s88.385-34.331 122.030 0c33.641 34.331 33.641 90.188 0 124.518zM451.326 512.45c-11.215-11.447-29.464-11.447-40.675 0-11.215 11.442-11.219 30.061-0.004 41.503s29.46 11.447 40.68 0c11.211-11.442 11.211-30.061 0-41.503zM532.671 304.92c-33.721 34.411-88.3 34.411-122.025 0-33.645-34.331-33.645-90.188 0-124.518 33.725-34.411 88.3-34.415 122.025 0 33.645 34.331 33.645 90.188 0 124.518zM491.996 221.905c-11.237-11.469-29.433-11.469-40.675 0-11.211 11.442-11.211 30.066 0 41.508 11.242 11.469 29.438 11.469 40.675 0 11.215-11.442 11.215-30.061 0-41.508zM662.955 411.928c-1.754 16.108-15.979 27.719-31.762 25.929l-366.080-41.508c-15.792-1.79-27.167-16.299-25.413-32.412 1.634-15.008 14.087-26.112 28.552-26.112 1.060 0 2.133 0.062 3.21 0.183l366.084 41.508c15.787 1.79 27.167 16.299 25.409 32.412z" />
<glyph unicode="&#xe90d;" glyph-name="blink-menu" d="M48 816h928c26.51 0 48-21.49 48-48s-21.49-48-48-48h-928c-26.51 0-48 21.49-48 48s21.49 48 48 48zM48 496h928c26.51 0 48-21.49 48-48s-21.49-48-48-48h-928c-26.51 0-48 21.49-48 48s21.49 48 48 48zM48 176h928c26.51 0 48-21.49 48-48s-21.49-48-48-48h-928c-26.51 0-48 21.49-48 48s21.49 48 48 48z" />
<glyph unicode="&#xe90e;" glyph-name="blink-office" d="M894.856-21.311h-61.783v874.674c0 11.776-9.559 21.334-21.335 21.334h-64v64c0.006 11.774-9.553 21.332-21.329 21.332h-426.669c-11.776 0-21.334-9.558-21.334-21.334v-64h-64.001c-11.776 0-21.334-9.558-21.334-21.334v-874.672h-64.001c-11.776 0-21.334-9.559-21.334-21.335s9.558-21.329 21.334-21.329h256.002c11.776 0 21.334 9.553 21.334 21.329v106.671h213.335v-106.665c0-11.776 9.558-21.335 21.334-21.335h253.781c11.776 0 21.335 9.559 21.335 21.335s-9.559 21.329-21.335 21.329zM406.405 170.689c0-11.776-9.558-21.329-21.334-21.329h-85.335c-11.776 0-21.334 9.553-21.334 21.329v85.335c0 11.776 9.558 21.335 21.334 21.335h85.335c11.776 0 21.334-9.559 21.334-21.335v-85.335zM406.405 341.359c0-11.776-9.558-21.335-21.334-21.335h-85.335c-11.776 0-21.334 9.559-21.334 21.335v85.335c0 11.776 9.558 21.334 21.334 21.334h85.335c11.776 0 21.334-9.558 21.334-21.334v-85.335zM406.405 512.027c0-11.776-9.558-21.334-21.334-21.334h-85.335c-11.776 0-21.334 9.558-21.334 21.334v85.335c0 11.776 9.558 21.334 21.334 21.334h85.335c11.776 0 21.334-9.558 21.334-21.334v-85.335zM406.405 682.694c0-11.776-9.558-21.334-21.334-21.334h-85.335c-11.776 0-21.334 9.558-21.334 21.334v85.335c0 11.776 9.558 21.334 21.334 21.334h85.335c11.776 0 21.334-9.558 21.334-21.334v-85.335zM577.074 170.689c0-11.776-9.558-21.329-21.334-21.329h-85.334c-11.776 0-21.334 9.553-21.334 21.329v85.335c0 11.776 9.558 21.335 21.334 21.335h85.334c11.776 0 21.334-9.559 21.334-21.335v-85.335zM577.074 341.359c0-11.776-9.558-21.335-21.334-21.335h-85.334c-11.776 0-21.334 9.559-21.334 21.335v85.335c0 11.776 9.558 21.334 21.334 21.334h85.334c11.776 0 21.334-9.558 21.334-21.334v-85.335zM577.074 512.027c0-11.776-9.558-21.334-21.334-21.334h-85.334c-11.776 0-21.334 9.558-21.334 21.334v85.335c0 11.776 9.558 21.334 21.334 21.334h85.334c11.776 0 21.334-9.558 21.334-21.334v-85.335zM577.074 682.694c0-11.776-9.558-21.334-21.334-21.334h-85.334c-11.776 0-21.334 9.558-21.334 21.334v85.335c0 11.776 9.558 21.334 21.334 21.334h85.334c11.776 0 21.334-9.558 21.334-21.334v-85.335zM747.743 170.689c0-11.776-9.559-21.329-21.335-21.329h-85.335c-11.777 0-21.334 9.553-21.334 21.329v85.335c0 11.776 9.558 21.335 21.334 21.335h85.335c11.776 0 21.335-9.559 21.335-21.335v-85.335zM747.743 341.359c0-11.776-9.559-21.335-21.335-21.335h-85.335c-11.777 0-21.334 9.559-21.334 21.335v85.335c0 11.776 9.558 21.334 21.334 21.334h85.335c11.776 0 21.335-9.558 21.335-21.334v-85.335zM747.743 512.027c0-11.776-9.559-21.334-21.335-21.334h-85.335c-11.777 0-21.334 9.558-21.334 21.334v85.335c0 11.776 9.558 21.334 21.334 21.334h85.335c11.776 0 21.335-9.558 21.335-21.334v-85.335zM747.743 682.694c0-11.776-9.559-21.334-21.335-21.334h-85.335c-11.777 0-21.334 9.558-21.334 21.334v85.335c0 11.776 9.558 21.334 21.334 21.334h85.335c11.776 0 21.335-9.558 21.335-21.334v-85.335z" />
<glyph unicode="&#xe90f;" glyph-name="blink-person-2" d="M398.222 84.107c15.451 215.785 121.679 327.602 318.683 335.448 204.73-23.54 307.095-135.356 307.095-335.448h-625.778zM898.767 645.973c0-94.885-75.732-171.804-169.153-171.804s-169.153 76.919-169.153 171.804c0 94.885 75.732 171.804 169.153 171.804s169.153-76.919 169.153-171.804zM508.031 646.113c0-94.808-76.41-171.665-170.667-171.665s-170.667 76.857-170.667 171.665c0 94.808 76.41 171.665 170.667 171.665s170.667-76.857 170.667-171.665zM5.953 84.211c15.876 215.579 123.039 329.357 321.488 341.333 75.411 0 134.946-15.969 178.605-47.906-99.225-95.813-144.868-191.626-136.93-287.439l-285.767-5.988h-77.395z" />
<glyph unicode="&#xe910;" glyph-name="blink-person-4" d="M672 243.31c8.691 121.379 68.444 184.276 179.259 188.69 115.16-13.241 172.741-76.138 172.741-188.69h-352zM953.557 559.36c0-53.373-42.599-96.64-95.149-96.64s-95.149 43.267-95.149 96.64c0 53.373 42.599 96.64 95.149 96.64s95.149-43.267 95.149-96.64zM733.767 559.439c0-53.329-42.981-96.561-96-96.561s-96 43.232-96 96.561c0 53.329 42.981 96.561 96 96.561s96-43.232 96-96.561zM451.349 243.368c8.93 121.263 69.209 185.263 180.837 192 42.419 0 75.907-8.982 100.465-26.947-55.814-53.895-81.488-107.789-77.023-161.684l-160.744-3.368h-43.535zM509.767 559.439c0-53.329-42.981-96.561-96-96.561s-96 43.232-96 96.561c0 53.329 42.981 96.561 96 96.561s96-43.232 96-96.561zM227.349 243.368c8.93 121.263 69.209 185.263 180.837 192 42.419 0 75.907-8.982 100.465-26.947-55.814-53.895-81.488-107.789-77.023-161.684l-160.744-3.368h-43.535zM285.767 559.439c0-53.329-42.981-96.561-96-96.561s-96 43.232-96 96.561c0 53.329 42.981 96.561 96 96.561s96-43.232 96-96.561zM3.349 243.368c8.93 121.263 69.209 185.263 180.837 192 42.419 0 75.907-8.982 100.465-26.947-55.814-53.895-81.488-107.789-77.023-161.684l-160.744-3.368h-43.535z" />
<glyph unicode="&#xe911;" glyph-name="blink-print" d="M99.995 228.57h71.185v-176.307c0-54.643 44.451-99.091 99.087-99.091h483.576c54.637 0 99.085 44.448 99.085 99.091v176.307h71.187c54.637 0 99.091 44.454 99.091 99.086v353.733c0 54.636-44.454 99.087-99.091 99.087h-71.187v63.156c0 54.638-44.448 99.087-99.085 99.087h-483.578c-54.638 0-99.087-44.451-99.087-99.087v-63.157h-71.185c-54.638 0-99.087-44.451-99.087-99.087v-353.733c0-54.63 44.451-99.084 99.089-99.084zM73.918 681.389c0 14.401 11.674 26.076 26.076 26.076h824.122c14.4 0 26.074-11.674 26.074-26.076v-353.733c0-14.401-11.674-26.075-26.074-26.075h-71.187v53.709c0 54.638-44.448 99.089-99.091 99.089h-483.571c-54.638 0-99.087-44.451-99.087-99.089v-53.709h-71.185c-14.401 0-26.076 11.674-26.076 26.075v353.733zM244.191 843.631c0 14.401 11.674 26.076 26.076 26.076h483.57c14.406 0 26.080-11.674 26.080-26.076v-63.157h-535.725v63.157zM779.917 228.57v-176.307c0-14.4-11.674-26.074-26.074-26.074h-483.578c-14.401 0-26.076 11.674-26.076 26.074v303.028c0 14.403 11.675 26.077 26.076 26.077h483.571c14.406 0 26.080-11.674 26.080-26.077v-126.721zM753.786-47.622h-483.572c-55.107 0-99.94 44.832-99.94 99.936v175.456h-70.332c-55.106 0-99.941 44.838-99.941 99.94v353.733c0 55.107 44.833 99.939 99.939 99.939h70.333v62.304c0 55.106 44.833 99.939 99.939 99.939h483.574c55.11 0 99.936-44.833 99.936-99.939v-62.305h70.336c55.11 0 99.942-44.833 99.942-99.939v-353.734c0-55.106-44.832-99.938-99.942-99.938h-70.336v-175.456c0-55.104-44.826-99.936-99.936-99.936zM99.939 779.678c-54.167 0-98.235-44.068-98.235-98.236v-353.733c0-54.167 44.069-98.231 98.237-98.231h72.036v-177.165c0-54.163 44.068-98.234 98.236-98.234h483.572c54.17 0 98.234 44.064 98.234 98.234v177.165h72.038c54.17 0 98.24 44.064 98.24 98.231v353.733c0 54.168-44.070 98.236-98.24 98.236h-72.038v64.008c0 54.167-44.064 98.235-98.234 98.235h-483.574c-54.167 0-98.235-44.068-98.235-98.235v-64.010l-72.037 0.002zM753.786 25.389h-483.574c-14.848 0-26.928 12.077-26.928 26.925v303.031c0 14.849 12.080 26.929 26.928 26.929h483.574c14.848 0 26.925-12.080 26.925-26.929v-303.031c0-14.848-12.077-26.925-26.925-26.925zM270.211 380.57c-13.908 0-25.224-11.316-25.224-25.225v-303.031c0-13.907 11.315-25.222 25.224-25.222h483.574c13.907 0 25.222 11.315 25.222 25.222v303.031c0 13.908-11.315 25.225-25.222 25.225h-483.574zM924.058 300.781h-72.038v54.564c0 54.167-44.064 98.237-98.234 98.237h-483.574c-54.167 0-98.235-44.068-98.235-98.237v-54.564h-72.037c-14.847 0-26.927 12.083-26.927 26.929v353.733c0 14.848 12.080 26.928 26.927 26.928h824.118c14.848 0 26.925-12.080 26.925-26.928v-353.733c0-14.845-12.077-26.929-26.925-26.929zM853.722 302.49h70.336c13.907 0 25.222 11.315 25.222 25.22v353.733c0 13.909-11.315 25.224-25.222 25.224h-824.116c-13.908 0-25.224-11.315-25.224-25.224v-353.733c0-13.905 11.316-25.22 25.224-25.22h70.332v52.855c0 55.108 44.833 99.941 99.94 99.941h483.579c55.104 0 99.936-44.833 99.936-99.941v-52.855h-0.006zM780.71 779.676h-537.425v64.010c0 14.847 12.080 26.927 26.928 26.927h483.572c14.848 0 26.931-12.080 26.931-26.927v-64.010h-0.006zM244.988 781.38h534.020v62.305c0 13.908-11.315 25.223-25.222 25.223h-483.574c-13.908 0-25.224-11.315-25.224-25.223v-62.305z" />
<glyph unicode="&#xe912;" glyph-name="blink-search" d="M991.286 27.297l-243.717 253.474c62.664 74.494 96.997 168.219 96.997 265.789 0 227.967-185.471 413.44-413.439 413.44-227.967 0-413.439-185.473-413.439-413.44 0-227.965 185.473-413.44 413.439-413.44 85.583 0 167.138 25.815 236.867 74.815l245.565-255.4c10.264-10.659 24.069-16.535 38.863-16.535 14 0 27.287 5.339 37.371 15.048 21.426 20.617 22.109 54.804 1.492 76.249zM431.127 852.146c168.503 0 305.587-137.082 305.587-305.585s-137.084-305.584-305.587-305.584c-168.504 0-305.585 137.079-305.585 305.584s137.082 305.585 305.585 305.585z" />
<glyph unicode="&#xe913;" glyph-name="blink-sheet-2" d="M775.796 939.312l237.911-237.911c11.426-11.426 11.426-29.95 0-41.376s-29.95-11.426-41.376 0l-237.911 237.911c-11.426 11.426-11.426 29.95 0 41.376s29.95 11.426 41.376 0zM62.066 225.578l237.911-237.911c11.426-11.426 11.426-29.95 0-41.376s-29.95-11.426-41.376 0l-237.911 237.911c-11.426 11.426-11.426 29.95 0 41.376s29.95 11.426 41.376 0zM948.743 442.802c0-238.335-193.208-431.543-431.543-431.543s-431.543 193.208-431.543 431.543c0 238.335 193.208 431.543 431.543 431.543s431.543-193.208 431.543-431.543z" />
<glyph unicode="&#xe914;" glyph-name="blink-sheet-4" d="M20.688 701.401l237.911 237.911c11.426 11.426 29.95 11.426 41.376 0s11.426-29.95 0-41.376l-237.911-237.911c-11.426-11.426-29.95-11.426-41.376 0s-11.426 29.95 0 41.376zM734.423-12.332l237.911 237.911c11.426 11.426 29.95 11.426 41.376 0s11.426-29.95 0-41.376l-237.911-237.911c-11.426-11.426-29.95-11.426-41.376 0s-11.426 29.95 0 41.376zM775.796 939.312l237.911-237.911c11.426-11.426 11.426-29.95 0-41.376s-29.95-11.426-41.376 0l-237.911 237.911c-11.426 11.426-11.426 29.95 0 41.376s29.95 11.426 41.376 0zM62.066 225.578l237.911-237.911c11.426-11.426 11.426-29.95 0-41.376s-29.95-11.426-41.376 0l-237.911 237.911c-11.426 11.426-11.426 29.95 0 41.376s29.95 11.426 41.376 0zM948.743 442.802c0-238.335-193.208-431.543-431.543-431.543s-431.543 193.208-431.543 431.543c0 238.335 193.208 431.543 431.543 431.543s431.543-193.208 431.543-431.543z" />
<glyph unicode="&#xe915;" glyph-name="blink-user" d="M512 960c-137.85 0-250-112.15-250-250s112.15-249.999 250-249.999c137.85 0 250.002 112.15 250.002 249.999s-112.152 250-250.002 250zM920.623-25.013l-93.601 297.968c-19.74 62.83-77.245 105.043-143.104 105.043h-78.572c-7.956 0-15.584-3.163-21.213-8.787l-72.133-72.133-72.133 72.133c-5.624 5.628-13.253 8.791-21.209 8.791h-78.572c-65.858 0-123.368-42.216-143.104-105.047l-93.604-297.968c-2.862-9.11-1.214-19.042 4.438-26.742s14.632-12.249 24.184-12.249h760.002c9.551 0 18.53 4.549 24.182 12.249s7.302 17.629 4.439 26.742zM722.003 97.997h-120.001c-16.569 0-29.999 13.434-29.999 29.999 0 16.569 13.43 29.999 29.999 29.999h120.001c16.565 0 29.999-13.43 29.999-29.999 0-16.565-13.434-29.999-29.999-29.999z" />
<glyph unicode="&#xe916;" glyph-name="blink-tabel-2-side" horiz-adv-x="951" d="M20.688 701.401l237.911 237.911c11.426 11.426 29.95 11.426 41.376 0s11.426-29.95 0-41.376l-237.911-237.911c-11.426-11.426-29.95-11.426-41.376 0s-11.426 29.95 0 41.376zM62.066 225.578l237.911-237.911c11.426-11.426 11.426-29.95 0-41.376s-29.95-11.426-41.376 0l-237.911 237.911c-11.426 11.426-11.426 29.95 0 41.376s29.95 11.426 41.376 0zM948.743 442.802c0-238.335-193.208-431.543-431.543-431.543s-431.543 193.208-431.543 431.543c0 238.335 193.208 431.543 431.543 431.543s431.543-193.208 431.543-431.543z" />
<glyph unicode="&#xe917;" glyph-name="blink-donut" d="M511.99 774.925c-180.262 0-326.915-146.66-326.915-326.922s146.652-326.922 326.915-326.922c180.262 0 326.93 146.66 326.93 326.922s-146.668 326.922-326.93 326.922zM511.99 732.283c142.554 0 260.913-105.482 281.19-242.491-13.76-7.391-23.375-18.309-31.222-27.277-12.495-14.285-19.154-21.151-33.702-21.151-14.561 0-21.207 6.866-33.7 21.151-11.080 12.664-25.649 29.21-50.496 34.191-19.894 53.745-71.503 92.229-132.070 92.229-60.516 0-112.084-38.415-132.004-92.086-24.812-4.826-39.153-21.719-50.035-34.619-11.889-14.088-18.199-20.859-31.675-20.859-13.484 0-19.794 6.771-31.677 20.859-8.548 10.127-19.23 22.72-35.42 30.013 21.307 135.808 139.105 240.038 280.812 240.038zM610.273 448.003c0-54.19-44.086-98.284-98.284-98.284-54.182 0-98.268 44.093-98.268 98.284s44.086 98.284 98.268 98.284c54.198 0 98.284-44.093 98.284-98.284zM511.99 163.722c-154.662 0-280.783 124.18-284.123 278.062 1.926-2.132 3.909-4.429 6.133-7.058 12.821-15.194 30.369-35.996 64.269-35.996 33.894 0 51.448 20.808 64.269 35.996 3.233 3.837 6.049 7.071 8.714 9.836 1.846-76.101 64.197-137.485 140.739-137.485 76.672 0 139.105 61.568 140.777 137.848 2.97-2.908 6.075-6.354 9.7-10.491 13.184-15.066 31.242-35.704 65.797-35.704s52.605 20.639 65.797 35.712c0.684 0.776 1.28 1.444 1.925 2.181-6.011-151.493-131.067-272.901-283.996-272.901zM542.656 659.884l-17.769 46.191-39.798-15.308 17.769-46.193 39.798 15.309zM413.565 638.764l-42.604 1.761-2.043-49.449 42.604-1.761 2.043 49.449zM666.468 620.559l-34.481 25.091-29.123-40.020 34.481-25.091 29.123 40.020zM752.251 493.414l-4.787 42.373-49.183-5.558 4.79-42.373 49.18 5.558zM325.814 531.256l-42.163 25.917-22.333-36.326 42.166-25.917 22.331 36.326z" />
<glyph unicode="&#xe918;" glyph-name="blink-french-fries" d="M720.545 566.313v177.803h-187.241v47.809h-136.248v-47.809h-93.614v-177.803h-46.267l54.254-394.708c0.847-37.391 31.526-67.538 69.11-67.538h262.909c37.588 0 68.255 30.147 69.11 67.538l54.246 394.708h-46.259zM677.903 701.473v-135.16h-35.863l-5.814-12.052c-2.762-5.729-5.891-11.174-9.308-16.369v163.581h50.985zM584.276 701.473v-205.071c-15.388-9.487-32.658-15.892-50.972-18.706v223.777h50.972zM439.698 749.283h50.972v-271.587c-18.322 2.813-35.587 9.219-50.972 18.711v252.876zM346.084 701.473h50.972v-163.561c-3.412 5.189-6.533 10.627-9.298 16.348l-5.811 12.052h-35.863v135.16zM670.136 176.095l-0.2-2.9c0-14.605-11.884-26.486-26.488-26.486h-262.909c-14.605 0-26.488 11.881-26.488 26.486v1.459l-47.98 349.018h49.672c32.079-55.265 91.994-90.294 156.239-90.294 65.3 0 124.019 34.263 156.278 90.294h49.636l-47.759-347.576z" />
<glyph unicode="&#xe919;" glyph-name="blink-prawn" d="M870.518 416.727c0 134.216-95.099 235.428-221.204 235.428-0.568 0-1.096-0.128-1.649-0.164h-337.172c-20.887 9.098-34.568 21.67-40.509 37.496-11.412 30.39 6.758 65.435 7.101 66.089 5.55 10.341 1.697 23.233-8.63 28.833-10.355 5.601-23.289 1.763-28.903-8.585-1.023-1.883-22.295-42.081-13.866-85.469-36.864 44.511-28.819 111.9-28.719 112.71 1.521 11.655-6.673 22.344-18.329 23.894-11.677 1.564-22.387-6.652-23.943-18.322-0.483-3.617-11.194-89.285 40.68-148.516 23.048-26.317 54.276-42.962 93.144-49.756 9.851-89.249 83.786-159.444 174.656-163.446 2.089-0.691 4.293-1.152 6.61-1.152 85.868 0 141.402-20.37 165.066-60.539 28.913-49.073 5.722-118.502-8.776-152.182-20.526 28.273-68.293 61.112-179.75 61.112-11.776 0-21.322-9.544-21.322-21.32 0-48.064 37.88-77.745 69.407-94.134-21.732-17.958-44.375-46.7-44.375-88.525 0-11.776 9.544-21.32 21.32-21.32 98.427 0 161.72 56.387 169.39 112.745 127.194 2.941 229.775 107.238 229.775 235.121zM496.888 113.132c12.8 33.487 50.476 49.029 52.321 49.784 8.571 3.369 13.996 11.86 13.476 21.051-0.52 9.196-6.907 17.029-15.798 19.395-0.663 0.177-54.525 15.485-73.055 47.396 115.113-6.643 124.508-54.694 125.076-58.696-0.576-29.545-36.58-70.339-102.021-78.93zM827.116 435.028c-1.556-2.097-2.785-4.477-3.502-7.15-8.138-30.147-29.46-53.949-58.506-65.277-22.999-8.998-48.328-8.883-71.327 0.305-2.010 0.804-4.065 1.18-6.118 1.344-2.998 14.548-8.010 28.869-15.921 42.373 29.345 6.487 56.353 21.171 77.965 42.806 22.991 22.984 38.060 52.413 43.85 83.784 18.706-27.476 30.602-61.007 33.559-98.184zM332.106 606.925c3.233 0.136 6.239 1.004 8.947 2.417h270.008c-10.312-67.835-69.036-119.995-139.702-119.995-69.834 0-127.913 50.936-139.254 117.578zM571.476 476.454c44.79 29.181 76.124 77.304 82.563 132.931 37.304-0.945 71.071-13.064 98.724-33.574 4.221-35.313-8.023-71.048-33.219-96.236-20.959-20.972-48.824-33.062-78.461-34.043-1.236-0.041-2.429-0.241-3.602-0.484-17.789 13.696-39.78 24.2-66.004 31.406zM669.86 227.226c9.252 23.583 19.31 56.709 21.023 91.653 12.756-3.709 25.869-5.578 38.973-5.578 17.193 0 34.383 3.19 50.76 9.587 11.156 4.357 21.576 10.156 31.107 17.078-25.28-57.902-78.062-101.125-141.862-112.74zM470.257 531.822c15.808 0 28.621 12.815 28.621 28.621s-12.813 28.621-28.621 28.621c-15.805 0-28.618-12.815-28.618-28.621s12.813-28.621 28.618-28.621z" />
<glyph unicode="&#xe91a;" glyph-name="blink-rice" d="M804.593 451.418c0 11.776-9.536 21.322-21.32 21.322h-42.409c-12.116 37.901-34.12 71.828-63.188 99.213l155.302 149.802-29.606 30.688-159.419-153.774c-2.010 1.329-4.050 2.609-6.103 3.886l140.506 176.752-33.382 26.531-145.859-183.504c-31.050 12.7-65.298 19.794-101.294 19.794-114.68 0-211.784-71.539-243.054-169.388h-42.407c-11.777 0-21.321-9.546-21.321-21.322 0-109.128 64.553-204.306 159.575-253.478h-82.010v-42.642h458.396v42.642h-81.966c95.014 49.172 159.56 144.351 159.56 253.478zM497.805 599.485c90.486 0 167.647-52.849 197.588-126.746h-395.172c29.937 73.905 107.11 126.746 197.583 126.746zM234.639 430.098h526.346c-11.635-125.908-125.22-225.052-263.165-225.052-137.964 0-251.554 99.151-263.181 225.052zM652.677 132.787h-309.752v-42.642h309.752v42.642zM375.409 534.531l17.766-27.231 35.712 23.301-17.766 27.231-35.712-23.301zM471.532 502.036l41.756-8.66 6.607 31.859-41.754 8.66-6.61-31.859zM560.796 537.224l13.629-29.537 38.712 17.866-13.629 29.535-38.712-17.864z" />
<glyph unicode="&#xe91b;" glyph-name="blink-roast-chicken" d="M829.565 383.296h-49.641c-0.399 125.532-109.711 227.553-244.047 227.553-45.238 0-87.608-11.612-123.968-31.747l-23.739 23.736c9.843 13.112 15.168 28.977 15.173 45.663 0.008 20.378-7.923 39.537-22.336 53.929-14.405 14.406-33.567 22.344-53.937 22.344-20.375 0-39.529-7.931-53.926-22.344-15.217-15.229-22.643-35.351-22.267-55.357-20.802 0.484-40.666-7.562-55.406-22.316-14.42-14.413-22.359-33.567-22.359-53.934 0-20.37 7.939-39.529 22.352-53.921 14.399-14.408 33.552-22.344 53.928-22.344 16.71 0 32.587 5.335 45.663 15.165l23.488-23.488c-16.937-30.93-26.58-65.889-26.701-102.94h-38.904c-11.776 0-21.321-9.544-21.321-21.32 0-106.967 136.006-190.753 309.63-190.753 173.632 0 309.64 83.786 309.64 190.753 0 11.784-9.546 21.32-21.322 21.32zM535.877 568.207c110.817 0 200.998-82.89 201.405-184.911h-41.080c-4.646 79.821-74.772 143.421-160.325 143.421-11.779 0-21.322-9.551-21.322-21.322 0-11.776 9.544-21.32 21.322-21.32 61.957 0 112.794-44.498 117.478-100.78h-318.879c0.404 102.021 90.586 184.911 201.4 184.911zM309.937 555.139c-4.014 4.014-9.444 6.246-15.073 6.246-0.684 0-1.364-0.036-2.056-0.108-6.339-0.609-12.073-4.022-15.634-9.316-1.224-1.82-2.56-3.448-4.045-4.918-6.339-6.354-14.769-9.843-23.744-9.843-8.983 0-17.419 3.494-23.78 9.856-6.361 6.354-9.857 14.789-9.857 23.767 0 8.975 3.504 17.411 9.872 23.788 6.339 6.346 14.768 9.836 23.745 9.836s17.419-3.497 23.758-9.851c8.317-8.335 21.819-8.351 30.157-0.036 4.17 4.173 6.262 9.638 6.262 15.101 0 5.453-2.076 10.895-6.226 15.053-13.107 13.128-13.107 34.47-0.008 47.562 6.346 6.354 14.789 9.848 23.772 9.848s17.434-3.494 23.788-9.856c6.354-6.346 9.843-14.784 9.843-23.759 0-8.991-3.505-17.426-9.836-23.764-1.464-1.459-3.149-2.836-5.018-4.116-5.253-3.569-8.635-9.303-9.231-15.621-0.599-6.318 1.654-12.588 6.154-17.070l33.155-33.162c-12.096-9.843-23.148-20.767-32.986-32.635l-33.011 32.998zM541.248 213.873c-131.699 0-244.808 56.174-264.095 126.789h528.2c-19.29-70.615-132.398-126.789-264.105-126.789z" />
</font>
</defs>
</svg>
